<svg width="160" height="80" viewBox="0 0 160 80" fill="none" xmlns="http://www.w3.org/2000/svg">
<path d="M15.06 47V28.86H10.38V23.56H26.5V28.86H21.82V47H15.06ZM37.4736 36.66C37.4736 34.9667 37.3869 33.7667 37.2136 33.06C37.0403 32.3533 36.7203 32 36.2536 32C35.8536 32 35.5269 32.0733 35.2736 32.22C35.0203 32.3533 34.8336 32.5733 34.7136 32.88C34.5936 33.1733 34.5136 33.48 34.4736 33.8C34.4469 34.1067 34.4336 34.5 34.4336 34.98V36.66H37.4736ZM35.8736 47.42C34.3803 47.42 33.0803 47.1933 31.9736 46.74C30.8803 46.2867 30.0136 45.6533 29.3736 44.84C28.7469 44.0267 28.2869 43.1133 27.9936 42.1C27.7003 41.0733 27.5536 39.9333 27.5536 38.68C27.5536 35.6933 28.3136 33.4333 29.8336 31.9C31.3536 30.3667 33.4803 29.6 36.2136 29.6C38.8403 29.6 40.7203 30.22 41.8536 31.46C42.9869 32.6867 43.5536 34.6667 43.5536 37.4V39.62H34.4136V40C34.4136 40.7867 34.4936 41.4333 34.6536 41.94C34.8269 42.4467 35.0736 42.82 35.3936 43.06C35.7136 43.3 36.0403 43.46 36.3736 43.54C36.7069 43.62 37.1136 43.66 37.5936 43.66C38.0603 43.66 38.5603 43.6 39.0936 43.48C39.6403 43.36 40.1869 43.1733 40.7336 42.92C41.2936 42.6667 41.7603 42.3667 42.1336 42.02L43.3136 44.04C42.8203 44.84 42.0936 45.5133 41.1336 46.06C40.1869 46.5933 39.2736 46.9533 38.3936 47.14C37.5136 47.3267 36.6736 47.42 35.8736 47.42ZM50.9802 47.42C49.7268 47.42 48.4602 47.2133 47.1802 46.8C45.9002 46.3733 45.0802 45.96 44.7202 45.56L45.2402 42.34C45.6935 42.78 46.4468 43.16 47.5002 43.48C48.5668 43.8 49.6535 43.96 50.7602 43.96C51.5602 43.96 52.1068 43.86 52.4002 43.66C52.7068 43.46 52.8602 43.18 52.8602 42.82C52.8602 42.4733 52.5935 42.1667 52.0602 41.9C51.5268 41.62 50.6602 41.3 49.4602 40.94C46.3535 40.0067 44.8002 38.0733 44.8002 35.14C44.8002 33.94 45.1468 32.9133 45.8402 32.06C46.5335 31.1933 47.4202 30.5667 48.5002 30.18C49.5802 29.7933 50.7868 29.6 52.1202 29.6C54.4002 29.6 56.0802 30.02 57.1602 30.86C57.4002 31.0867 57.5202 31.2 57.5202 31.2L56.6402 34.06C55.7602 33.1933 54.5468 32.76 53.0002 32.76C51.7335 32.76 51.1002 33.1333 51.1002 33.88C51.1002 34.0933 51.1468 34.2733 51.2402 34.42C51.3335 34.5533 51.4868 34.6733 51.7002 34.78C51.9268 34.8733 52.1468 34.9533 52.3602 35.02C52.5735 35.0733 52.8735 35.1533 53.2602 35.26C53.6468 35.3533 53.9802 35.44 54.2602 35.52C55.8202 36.04 56.9535 36.7733 57.6602 37.72C58.3668 38.6667 58.7202 39.8467 58.7202 41.26C58.7202 45.3667 56.1402 47.42 50.9802 47.42ZM65.1072 47.42C63.3072 47.42 62.0472 46.88 61.3272 45.8C60.6205 44.72 60.2672 42.8933 60.2672 40.32V33.52H58.8872V30.74L61.2472 30L63.2872 25.34H66.8072V30H70.0872V33.52H66.7472V40.96C66.7472 42.0267 66.9005 42.7333 67.2072 43.08C67.5139 43.4267 67.9872 43.6 68.6272 43.6C68.9072 43.6 69.1605 43.5667 69.3872 43.5C69.6139 43.4333 69.8005 43.34 69.9472 43.22V45.94C69.7472 46.14 69.4872 46.34 69.1672 46.54C68.8472 46.7267 68.3139 46.92 67.5672 47.12C66.8339 47.32 66.0139 47.42 65.1072 47.42ZM79.6603 47V23.56H86.2803V41.64H92.2403V47H79.6603ZM102.334 45.02C102.921 45.02 103.368 44.78 103.674 44.3C103.994 43.8067 104.154 43.1333 104.154 42.28V35.96C104.154 33.36 103.541 32.06 102.314 32.06C101.741 32.06 101.294 32.2933 100.974 32.76C100.654 33.2267 100.494 33.8867 100.494 34.74V41.24C100.494 43.76 101.108 45.02 102.334 45.02ZM102.174 47.42C99.121 47.42 96.8877 46.7267 95.4744 45.34C94.061 43.9533 93.3544 41.74 93.3544 38.7C93.3544 35.6867 94.0677 33.42 95.4944 31.9C96.921 30.3667 99.241 29.6 102.454 29.6C105.588 29.6 107.848 30.3333 109.234 31.8C110.634 33.2533 111.334 35.46 111.334 38.42C111.334 41.4867 110.594 43.7533 109.114 45.22C107.648 46.6867 105.334 47.42 102.174 47.42ZM121.213 54.06C120.173 54.06 119 53.82 117.693 53.34C116.386 52.8733 115.54 52.4267 115.153 52L116.413 49.26C116.746 49.5133 117.286 49.7467 118.033 49.96C118.78 50.1733 119.42 50.28 119.953 50.28C120.486 50.28 120.946 50.2067 121.333 50.06C121.733 49.9267 122.04 49.7533 122.253 49.54C122.466 49.34 122.64 49.0867 122.773 48.78C122.906 48.4867 122.986 48.22 123.013 47.98C123.053 47.74 123.08 47.4733 123.093 47.18V45.48C121.96 46.6533 120.58 47.24 118.953 47.24C116.753 47.24 115.14 46.4867 114.113 44.98C113.086 43.4733 112.573 41.38 112.573 38.7C112.573 37.4467 112.713 36.2933 112.993 35.24C113.273 34.1733 113.68 33.24 114.213 32.44C114.76 31.6267 115.466 30.9933 116.333 30.54C117.2 30.0733 118.18 29.84 119.273 29.84C120.926 29.84 122.36 30.2067 123.573 30.94L123.913 30H126.973L130.733 30.18V32.06L129.533 32.9V46.26C129.533 51.46 126.76 54.06 121.213 54.06ZM121.853 43.6C122.253 43.6 122.666 43.4867 123.093 43.26V32.72C122.773 32.6533 122.48 32.62 122.213 32.62C120.44 32.6333 119.546 34 119.533 36.72V39.82C119.533 40.6733 119.646 41.4067 119.873 42.02C120.273 43.0733 120.933 43.6 121.853 43.6ZM140.362 45.02C140.948 45.02 141.395 44.78 141.702 44.3C142.022 43.8067 142.182 43.1333 142.182 42.28V35.96C142.182 33.36 141.568 32.06 140.342 32.06C139.768 32.06 139.322 32.2933 139.002 32.76C138.682 33.2267 138.522 33.8867 138.522 34.74V41.24C138.522 43.76 139.135 45.02 140.362 45.02ZM140.202 47.42C137.148 47.42 134.915 46.7267 133.502 45.34C132.088 43.9533 131.382 41.74 131.382 38.7C131.382 35.6867 132.095 33.42 133.522 31.9C134.948 30.3667 137.268 29.6 140.482 29.6C143.615 29.6 145.875 30.3333 147.262 31.8C148.662 33.2533 149.362 35.46 149.362 38.42C149.362 41.4867 148.622 43.7533 147.142 45.22C145.675 46.6867 143.362 47.42 140.202 47.42Z" fill="white"/>
</svg>
